<?xml version="1.0" encoding="UTF-8"?><svg id="Layer_1" xmlns="http://www.w3.org/2000/svg" viewBox="0 0 454.25 37.13"><defs><style>.cls-1{fill:#0093d0;}</style></defs><path class="cls-1" d="M0,.55h28.14c13.35,0,17.12,3.72,17.12,12.71v.94c0,8.94-3.82,12.71-17.07,12.71h-15.73v9.73h-7.44c-3.72,0-5.01-.4-5.01-4.37V.55ZM27.5,18.31c3.62,0,4.86-.89,4.86-4.42v-.3c0-3.52-1.24-4.42-4.86-4.42h-15.04v9.13h15.04Z"/><path class="cls-1" d="M101.45,19.01c0,13.65-4.52,18.12-24.52,18.12h-1.09c-20,0-24.52-4.47-24.52-18.12v-.9c0-13.7,4.52-18.12,24.52-18.12h1.09c20,0,24.52,4.42,24.52,18.12v.9ZM88.25,18.12c0-7.39-1.04-8.49-11.32-8.49h-1.09c-10.32,0-11.32,1.09-11.32,8.49v.9c0,7.39.99,8.49,11.32,8.49h1.09c10.27,0,11.32-1.09,11.32-8.49v-.9Z"/><path class="cls-1" d="M145.87,24.92l8.69,11.71h-9.68c-4.47,0-4.86-.4-6.5-2.88l-4.91-7.35h-12.76v10.22h-7.44c-3.72,0-5.01-.4-5.01-4.37V.55h28.09c13.4,0,17.17,3.67,17.17,12.66,0,6.35-1.94,10.08-7.64,11.71ZM135.7,17.97c3.62,0,4.91-.89,4.91-4.37v-.2c0-3.48-1.29-4.37-4.91-4.37h-14.99v8.93h14.99Z"/><path class="cls-1" d="M174.56,10.17h-9.43c-6.15,0-7.15-.74-7.15-6.5V.55h38.82c6.15,0,7.15.74,7.15,6.5v3.13h-16.58v26.46h-7.79c-3.72,0-5.01-.4-5.01-4.37V10.17Z"/><path class="cls-1" d="M224.24,20.95h6.3l-5.31-11.07-11.46,23.82c-1.29,2.68-2.23,2.93-6.1,2.93h-8.29L218.63.55h8.98c4.57,0,5.86.74,7.89,4.57l16.78,31.52h-9.48c-3.87,0-4.81-.25-6.1-2.93l-2.08-4.27h-14.44l4.07-8.49Z"/><path class="cls-1" d="M277.35,36.73c-19.61,0-23.38-3.67-23.38-17.57v-1.24c0-13.15,4.62-17.52,23.43-17.52h12.61c6.15,0,7.15.74,7.15,6.5v3.13h-19.75c-9.28,0-10.23.84-10.23,8.29v.5c0,7.45.94,8.29,10.23,8.29h20.35v3.13c0,5.76-.99,6.5-7.15,6.5h-13.25Z"/><path class="cls-1" d="M353.69,19.01c0,13.65-4.52,18.12-24.52,18.12h-1.09c-20,0-24.52-4.47-24.52-18.12v-.9c0-13.7,4.52-18.12,24.52-18.12h1.09c20,0,24.52,4.42,24.52,18.12v.9ZM340.48,18.12c0-7.39-1.04-8.49-11.32-8.49h-1.09c-10.33,0-11.32,1.09-11.32,8.49v.9c0,7.39.99,8.49,11.32,8.49h1.09c10.28,0,11.32-1.09,11.32-8.49v-.9Z"/><path class="cls-1" d="M409.87,19.01c0,13.65-4.52,18.12-24.52,18.12h-1.09c-20,0-24.52-4.47-24.52-18.12v-.9c0-13.7,4.52-18.12,24.52-18.12h1.09c20,0,24.52,4.42,24.52,18.12v.9ZM396.67,18.12c0-7.39-1.04-8.49-11.32-8.49h-1.09c-10.33,0-11.32,1.09-11.32,8.49v.9c0,7.39.99,8.49,11.32,8.49h1.09c10.28,0,11.32-1.09,11.32-8.49v-.9Z"/><path class="cls-1" d="M416.67,36.63V.55h7.74c3.72,0,5.01.4,5.01,4.37v22.09h24.82v3.13c0,5.76-.99,6.5-7.15,6.5h-30.43Z"/></svg>