<?xml version="1.0" encoding="UTF-8" standalone="no"?>
<svg
   xmlns:dc="http://purl.org/dc/elements/1.1/"
   xmlns:cc="http://creativecommons.org/ns#"
   xmlns:rdf="http://www.w3.org/1999/02/22-rdf-syntax-ns#"
   xmlns:svg="http://www.w3.org/2000/svg"
   xmlns="http://www.w3.org/2000/svg"
   viewBox="0 0 816 1056"
   height="1056"
   width="816"
   xml:space="preserve"
   id="svg2"
   version="1.1"><metadata
     id="metadata8"><rdf:RDF><cc:Work
         rdf:about=""><dc:format>image/svg+xml</dc:format><dc:type
           rdf:resource="http://purl.org/dc/dcmitype/StillImage" /></cc:Work></rdf:RDF></metadata><defs
     id="defs6"><clipPath
       id="clipPath18"
       clipPathUnits="userSpaceOnUse"><path
         id="path16"
         d="M 0,792 H 612 V 0 H 0 Z" /></clipPath></defs><g
     transform="matrix(1.3333333,0,0,-1.3333333,0,1056)"
     id="g10"><g
       id="g12"><g
         clip-path="url(#clipPath18)"
         id="g14"><g
           transform="translate(152.7085,538.5684)"
           id="g20"><path
             id="path22"
             style="fill:#0097d2;fill-opacity:1;fill-rule:nonzero;stroke:none"
             d="M 0,0 C 3.623,0 4.864,0.893 4.864,4.417 V 4.715 C 4.864,8.239 3.623,9.133 0,9.133 H -15.04 V 0 Z M -27.499,17.77 H 0.645 c 13.352,0 17.124,-3.723 17.124,-12.707 V 4.121 c 0,-8.936 -3.822,-12.706 -17.075,-12.706 H -15.04 v -9.729 h -7.445 c -3.723,0 -5.014,0.396 -5.014,4.366 z" /></g><g
           transform="translate(213.4595,538.7676)"
           id="g24"><path
             id="path26"
             style="fill:#0097d2;fill-opacity:1;fill-rule:nonzero;stroke:none"
             d="m 0,0 c 0,7.395 -1.042,8.488 -11.317,8.488 h -1.092 C -22.733,8.488 -23.726,7.395 -23.726,0 v -0.895 c 0,-7.394 0.993,-8.487 11.317,-8.487 h 1.092 C -1.042,-9.382 0,-8.289 0,-0.895 Z m 13.203,-0.895 c 0,-13.649 -4.516,-18.116 -24.52,-18.116 h -1.092 c -20.003,0 -24.519,4.467 -24.519,18.116 V 0 c 0,13.699 4.516,18.116 24.519,18.116 h 1.092 c 20.004,0 24.52,-4.417 24.52,-18.116 z" /></g><g
           transform="translate(260.9077,538.916)"
           id="g28"><path
             id="path30"
             style="fill:#0097d2;fill-opacity:1;fill-rule:nonzero;stroke:none"
             d="M 0,0 C 3.623,0 4.914,0.893 4.914,4.368 V 4.566 C 4.914,8.042 3.623,8.934 0,8.934 H -14.99 V 0 Z m 10.176,-6.948 8.685,-11.714 H 9.182 c -4.467,0 -4.864,0.396 -6.501,2.878 l -4.914,7.346 H -14.99 v -10.224 h -7.445 c -3.723,0 -5.013,0.396 -5.013,4.366 V 17.422 H 0.646 c 13.4,0 17.172,-3.673 17.172,-12.658 0,-6.352 -1.935,-10.075 -7.642,-11.712" /></g><g
           transform="translate(299.77,546.7095)"
           id="g32"><path
             id="path34"
             style="fill:#0097d2;fill-opacity:1;fill-rule:nonzero;stroke:none"
             d="m 0,0 h -9.431 c -6.155,0 -7.148,0.744 -7.148,6.501 v 3.127 h 38.816 c 6.154,0 7.146,-0.744 7.146,-6.502 V 0 H 12.805 V -26.456 H 5.013 C 1.29,-26.456 0,-26.059 0,-22.089 Z" /></g><g
           transform="translate(349.4531,535.9375)"
           id="g36"><path
             id="path38"
             style="fill:#0097d2;fill-opacity:1;fill-rule:nonzero;stroke:none"
             d="M 0,0 H 6.305 L 0.992,11.068 -10.473,-12.756 c -1.29,-2.681 -2.233,-2.928 -6.104,-2.928 h -8.289 L -5.608,20.4 h 8.983 c 4.567,0 5.857,-0.744 7.893,-4.567 l 16.776,-31.517 h -9.481 c -3.871,0 -4.813,0.247 -6.104,2.928 l -2.085,4.269 H -4.069 Z" /></g><g
           transform="translate(402.5625,520.1538)"
           id="g40"><path
             id="path42"
             style="fill:#0097d2;fill-opacity:1;fill-rule:nonzero;stroke:none"
             d="m 0,0 c -19.606,0 -23.38,3.673 -23.38,17.572 v 1.241 c 0,13.152 4.616,17.52 23.429,17.52 h 12.606 c 6.155,0 7.149,-0.744 7.149,-6.502 V 26.704 H 0.049 c -9.281,0 -10.226,-0.844 -10.226,-8.289 v -0.496 c 0,-7.446 0.945,-8.289 10.226,-8.289 h 20.35 V 6.503 C 20.399,0.744 19.405,0 13.251,0 Z" /></g><g
           transform="translate(465.6943,538.7676)"
           id="g44"><path
             id="path46"
             style="fill:#0097d2;fill-opacity:1;fill-rule:nonzero;stroke:none"
             d="m 0,0 c 0,7.395 -1.04,8.488 -11.315,8.488 h -1.093 C -22.733,8.488 -23.725,7.395 -23.725,0 v -0.895 c 0,-7.394 0.992,-8.487 11.317,-8.487 h 1.093 C -1.04,-9.382 0,-8.289 0,-0.895 Z m 13.205,-0.895 c 0,-13.649 -4.518,-18.116 -24.52,-18.116 h -1.093 c -20.002,0 -24.521,4.467 -24.521,18.116 V 0 c 0,13.699 4.519,18.116 24.521,18.116 h 1.093 c 20.002,0 24.52,-4.417 24.52,-18.116 z" /></g><g
           transform="translate(521.8789,538.7676)"
           id="g48"><path
             id="path50"
             style="fill:#0097d2;fill-opacity:1;fill-rule:nonzero;stroke:none"
             d="m 0,0 c 0,7.395 -1.041,8.488 -11.316,8.488 h -1.092 C -22.733,8.488 -23.725,7.395 -23.725,0 v -0.895 c 0,-7.394 0.992,-8.487 11.317,-8.487 h 1.092 C -1.041,-9.382 0,-8.289 0,-0.895 Z m 13.202,-0.895 c 0,-13.649 -4.516,-18.116 -24.518,-18.116 h -1.092 c -20.002,0 -24.521,4.467 -24.521,18.116 V 0 c 0,13.699 4.519,18.116 24.521,18.116 h 1.092 C 8.686,18.116 13.202,13.699 13.202,0 Z" /></g><g
           transform="translate(541.8809,520.2539)"
           id="g52"><path
             id="path54"
             style="fill:#0097d2;fill-opacity:1;fill-rule:nonzero;stroke:none"
             d="m 0,0 v 36.084 h 7.741 c 3.723,0 5.013,-0.397 5.013,-4.368 V 9.629 h 24.82 V 6.5 C 37.574,0.744 36.58,0 30.426,0 Z" /></g><g
           transform="translate(584.5293,524.2261)"
           id="g56"><path
             id="path58"
             style="fill:#0097d2;fill-opacity:1;fill-rule:nonzero;stroke:none"
             d="M 0,0 H -1.357 V 0.488 H 1.945 V 0 H 0.581 V -3.972 H 0 Z" /></g><g
           transform="translate(590.7314,522.2124)"
           id="g60"><path
             id="path62"
             style="fill:#0097d2;fill-opacity:1;fill-rule:nonzero;stroke:none"
             d="M 0,0 C -0.032,0.623 -0.072,1.378 -0.072,1.927 H -0.085 C -0.243,1.411 -0.423,0.847 -0.648,0.232 L -1.437,-1.933 H -1.872 L -2.599,0.192 C -2.811,0.827 -2.983,1.397 -3.11,1.927 H -3.122 C -3.137,1.37 -3.169,0.629 -3.209,-0.047 L -3.33,-1.958 h -0.546 l 0.309,4.459 h 0.736 l 0.76,-2.157 c 0.187,-0.549 0.331,-1.04 0.452,-1.502 h 0.012 c 0.119,0.449 0.279,0.939 0.477,1.502 l 0.793,2.157 h 0.734 l 0.28,-4.459 H 0.105 Z" /></g><g
           transform="translate(140.8618,488.71)"
           id="g64"><path
             id="path66"
             style="fill:#606163;fill-opacity:1;fill-rule:nonzero;stroke:none"
             d="m 0,0 -3.134,-12.057 h -1.805 l -2.535,10.008 -2.478,-10.008 h -1.765 L -14.907,0 h 1.644 L -10.729,-10.024 -8.235,0 h 1.628 L -4.089,-10.121 -1.571,0 Z" /></g><g
           transform="translate(157.7549,476.6533)"
           id="g68"><path
             id="path70"
             style="fill:#606163;fill-opacity:1;fill-rule:nonzero;stroke:none"
             d="M 0,0 H -1.603 V 5.902 H -7.619 V 0 h -1.603 v 12.057 h 1.603 V 7.328 h 6.016 v 4.729 H 0 Z" /></g><g
           transform="translate(174.2266,476.6533)"
           id="g72"><path
             id="path74"
             style="fill:#606163;fill-opacity:1;fill-rule:nonzero;stroke:none"
             d="M 0,0 H -7.943 V 12.057 H 0 V 10.632 H -6.34 V 7.328 H 0 V 5.902 H -6.34 V 1.425 H 0 Z" /></g><g
           transform="translate(191.2578,476.6533)"
           id="g76"><path
             id="path78"
             style="fill:#606163;fill-opacity:1;fill-rule:nonzero;stroke:none"
             d="M 0,0 H -1.984 L -7.701,10.785 V 0 h -1.497 v 12.057 h 2.485 l 5.215,-9.846 v 9.846 H 0 Z" /></g><g
           transform="translate(220.186,477.5273)"
           id="g80"><path
             id="path82"
             style="fill:#606163;fill-opacity:1;fill-rule:nonzero;stroke:none"
             d="m 0,0 c -0.297,-0.129 -0.565,-0.251 -0.806,-0.364 -0.24,-0.114 -0.554,-0.232 -0.943,-0.356 -0.33,-0.103 -0.687,-0.19 -1.073,-0.263 -0.386,-0.074 -0.811,-0.11 -1.275,-0.11 -0.875,0 -1.67,0.123 -2.385,0.368 -0.715,0.246 -1.337,0.631 -1.866,1.155 C -8.866,0.942 -9.271,1.594 -9.563,2.385 -9.854,3.176 -10,4.095 -10,5.143 c 0,0.993 0.14,1.88 0.421,2.663 0.281,0.783 0.685,1.444 1.215,1.984 0.512,0.523 1.132,0.923 1.858,1.198 0.726,0.276 1.531,0.413 2.417,0.413 0.648,0 1.294,-0.078 1.939,-0.235 C -1.505,11.01 -0.788,10.734 0,10.341 V 8.438 h -0.122 c -0.664,0.555 -1.322,0.96 -1.975,1.214 -0.653,0.254 -1.352,0.381 -2.097,0.381 -0.611,0 -1.16,-0.098 -1.648,-0.296 C -6.331,9.54 -6.767,9.233 -7.15,8.818 -7.522,8.413 -7.813,7.901 -8.02,7.284 -8.228,6.666 -8.332,5.952 -8.332,5.143 c 0,-0.848 0.115,-1.578 0.344,-2.187 0.23,-0.61 0.525,-1.106 0.887,-1.49 0.377,-0.4 0.819,-0.695 1.324,-0.887 0.505,-0.191 1.037,-0.287 1.599,-0.287 0.772,0 1.495,0.132 2.17,0.396 0.675,0.265 1.306,0.662 1.895,1.191 H 0 Z" /></g><g
           transform="translate(236.5845,482.6777)"
           id="g84"><path
             id="path86"
             style="fill:#606163;fill-opacity:1;fill-rule:nonzero;stroke:none"
             d="m 0,0 c 0,1.565 -0.351,2.773 -1.053,3.623 -0.701,0.851 -1.659,1.275 -2.874,1.275 -1.225,0 -2.188,-0.424 -2.886,-1.275 -0.7,-0.85 -1.049,-2.058 -1.049,-3.623 0,-1.582 0.356,-2.792 1.069,-3.632 0.712,-0.839 1.668,-1.259 2.866,-1.259 1.198,0 2.152,0.42 2.862,1.259 C -0.355,-2.792 0,-1.582 0,0 M 0.146,4.647 C 0.637,4.107 1.013,3.446 1.275,2.664 1.537,1.881 1.668,0.993 1.668,0 1.668,-0.993 1.534,-1.883 1.267,-2.668 1,-3.453 0.626,-4.108 0.146,-4.632 c -0.497,-0.545 -1.084,-0.955 -1.761,-1.23 -0.678,-0.276 -1.451,-0.413 -2.32,-0.413 -0.848,0 -1.618,0.14 -2.312,0.421 -0.693,0.28 -1.283,0.688 -1.769,1.222 -0.486,0.534 -0.86,1.191 -1.122,1.968 -0.261,0.777 -0.392,1.665 -0.392,2.664 0,0.982 0.129,1.863 0.388,2.644 0.26,0.78 0.637,1.448 1.134,2.003 0.475,0.53 1.065,0.934 1.769,1.215 0.705,0.281 1.472,0.421 2.304,0.421 0.863,0 1.64,-0.141 2.328,-0.425 0.688,-0.284 1.272,-0.687 1.753,-1.211" /></g><g
           transform="translate(256.8213,476.6533)"
           id="g88"><path
             id="path90"
             style="fill:#606163;fill-opacity:1;fill-rule:nonzero;stroke:none"
             d="m 0,0 h -1.603 v 10.389 l -3.352,-7.07 h -0.956 l -3.328,7.07 V 0 h -1.497 v 12.057 h 2.186 l 3.214,-6.713 3.109,6.713 H 0 Z" /></g><g
           transform="translate(273.0674,487.2852)"
           id="g92"><path
             id="path94"
             style="fill:#606163;fill-opacity:1;fill-rule:nonzero;stroke:none"
             d="m 0,0 h -6.097 v -3.401 h 5.239 v -1.425 h -5.239 v -5.806 H -7.7 V 1.425 H 0 Z" /></g><g
           transform="translate(289.0459,482.6777)"
           id="g96"><path
             id="path98"
             style="fill:#606163;fill-opacity:1;fill-rule:nonzero;stroke:none"
             d="m 0,0 c 0,1.565 -0.351,2.773 -1.053,3.623 -0.701,0.851 -1.659,1.275 -2.874,1.275 -1.225,0 -2.188,-0.424 -2.886,-1.275 -0.7,-0.85 -1.049,-2.058 -1.049,-3.623 0,-1.582 0.356,-2.792 1.069,-3.632 0.712,-0.839 1.668,-1.259 2.866,-1.259 1.198,0 2.152,0.42 2.862,1.259 C -0.355,-2.792 0,-1.582 0,0 M 0.146,4.647 C 0.637,4.107 1.013,3.446 1.275,2.664 1.537,1.881 1.668,0.993 1.668,0 1.668,-0.993 1.534,-1.883 1.267,-2.668 1,-3.453 0.626,-4.108 0.146,-4.632 c -0.497,-0.545 -1.084,-0.955 -1.761,-1.23 -0.678,-0.276 -1.451,-0.413 -2.32,-0.413 -0.848,0 -1.618,0.14 -2.312,0.421 -0.693,0.28 -1.283,0.688 -1.769,1.222 -0.486,0.534 -0.86,1.191 -1.122,1.968 -0.261,0.777 -0.392,1.665 -0.392,2.664 0,0.982 0.129,1.863 0.388,2.644 0.26,0.78 0.637,1.448 1.134,2.003 0.475,0.53 1.065,0.934 1.769,1.215 0.705,0.281 1.472,0.421 2.304,0.421 0.863,0 1.64,-0.141 2.328,-0.425 0.688,-0.284 1.272,-0.687 1.753,-1.211" /></g><g
           transform="translate(304.7725,485.3174)"
           id="g100"><path
             id="path102"
             style="fill:#606163;fill-opacity:1;fill-rule:nonzero;stroke:none"
             d="M 0,0 C 0,0.345 -0.061,0.651 -0.182,0.919 -0.304,1.186 -0.505,1.411 -0.786,1.595 -1.018,1.751 -1.293,1.86 -1.611,1.923 -1.93,1.984 -2.305,2.016 -2.737,2.016 h -1.887 v -4.55 h 1.62 c 0.507,0 0.95,0.044 1.328,0.133 0.378,0.089 0.699,0.255 0.963,0.498 0.243,0.226 0.422,0.487 0.539,0.781 C -0.058,-0.827 0,-0.454 0,0 M 3.749,-8.664 H 1.668 l -4.032,4.794 h -2.26 V -8.664 H -6.227 V 3.393 h 3.377 c 0.728,0 1.336,-0.048 1.822,-0.142 C -0.542,3.156 -0.105,2.987 0.283,2.745 0.721,2.47 1.062,2.122 1.308,1.704 1.553,1.286 1.676,0.756 1.676,0.113 1.676,-0.756 1.458,-1.483 1.02,-2.069 0.583,-2.654 -0.019,-3.096 -0.786,-3.393 Z" /></g><g
           transform="translate(323.4844,487.2852)"
           id="g104"><path
             id="path106"
             style="fill:#606163;fill-opacity:1;fill-rule:nonzero;stroke:none"
             d="M 0,0 H -4.309 V -10.632 H -5.911 V 0 h -4.308 V 1.425 H 0 Z" /></g><g
           transform="translate(350.8418,477.5273)"
           id="g108"><path
             id="path110"
             style="fill:#606163;fill-opacity:1;fill-rule:nonzero;stroke:none"
             d="m 0,0 c -0.297,-0.129 -0.565,-0.251 -0.806,-0.364 -0.24,-0.114 -0.554,-0.232 -0.943,-0.356 -0.329,-0.103 -0.687,-0.19 -1.073,-0.263 -0.386,-0.074 -0.811,-0.11 -1.276,-0.11 -0.874,0 -1.669,0.123 -2.384,0.368 -0.715,0.246 -1.337,0.631 -1.866,1.155 C -8.866,0.942 -9.271,1.594 -9.563,2.385 -9.854,3.176 -10,4.095 -10,5.143 c 0,0.993 0.141,1.88 0.421,2.663 0.28,0.783 0.685,1.444 1.215,1.984 0.512,0.523 1.132,0.923 1.858,1.198 0.726,0.276 1.531,0.413 2.416,0.413 0.649,0 1.295,-0.078 1.94,-0.235 C -1.505,11.01 -0.788,10.734 0,10.341 V 8.438 h -0.121 c -0.664,0.555 -1.323,0.96 -1.977,1.214 -0.652,0.254 -1.351,0.381 -2.096,0.381 -0.611,0 -1.16,-0.098 -1.648,-0.296 C -6.33,9.54 -6.767,9.233 -7.15,8.818 -7.522,8.413 -7.813,7.901 -8.02,7.284 -8.229,6.666 -8.332,5.952 -8.332,5.143 c 0,-0.848 0.115,-1.578 0.344,-2.187 0.23,-0.61 0.525,-1.106 0.886,-1.49 0.378,-0.4 0.82,-0.695 1.325,-0.887 0.505,-0.191 1.037,-0.287 1.599,-0.287 0.772,0 1.494,0.132 2.17,0.396 0.674,0.265 1.307,0.662 1.895,1.191 H 0 Z" /></g><g
           transform="translate(367.2402,482.6777)"
           id="g112"><path
             id="path114"
             style="fill:#606163;fill-opacity:1;fill-rule:nonzero;stroke:none"
             d="m 0,0 c 0,1.565 -0.352,2.773 -1.053,3.623 -0.701,0.851 -1.66,1.275 -2.875,1.275 -1.224,0 -2.187,-0.424 -2.885,-1.275 -0.7,-0.85 -1.049,-2.058 -1.049,-3.623 0,-1.582 0.356,-2.792 1.069,-3.632 0.712,-0.839 1.668,-1.259 2.865,-1.259 1.199,0 2.153,0.42 2.864,1.259 C -0.355,-2.792 0,-1.582 0,0 M 0.146,4.647 C 0.637,4.107 1.014,3.446 1.275,2.664 1.537,1.881 1.668,0.993 1.668,0 1.668,-0.993 1.534,-1.883 1.268,-2.668 1,-3.453 0.626,-4.108 0.146,-4.632 c -0.498,-0.545 -1.084,-0.955 -1.761,-1.23 -0.678,-0.276 -1.451,-0.413 -2.321,-0.413 -0.847,0 -1.617,0.14 -2.311,0.421 -0.693,0.28 -1.283,0.688 -1.769,1.222 -0.486,0.534 -0.86,1.191 -1.122,1.968 -0.261,0.777 -0.392,1.665 -0.392,2.664 0,0.982 0.13,1.863 0.388,2.644 0.259,0.78 0.637,1.448 1.134,2.003 0.475,0.53 1.065,0.934 1.77,1.215 0.704,0.281 1.471,0.421 2.302,0.421 0.864,0 1.641,-0.141 2.329,-0.425 0.688,-0.284 1.272,-0.687 1.753,-1.211" /></g><g
           transform="translate(385.8174,481.4951)"
           id="g116"><path
             id="path118"
             style="fill:#606163;fill-opacity:1;fill-rule:nonzero;stroke:none"
             d="m 0,0 c 0,-0.874 -0.097,-1.637 -0.288,-2.287 -0.191,-0.651 -0.506,-1.192 -0.943,-1.623 -0.415,-0.411 -0.901,-0.71 -1.457,-0.9 -0.556,-0.188 -1.204,-0.283 -1.944,-0.283 -0.756,0 -1.414,0.1 -1.975,0.3 -0.562,0.199 -1.035,0.494 -1.417,0.883 -0.438,0.442 -0.752,0.976 -0.944,1.602 -0.191,0.626 -0.287,1.396 -0.287,2.308 v 7.215 h 1.604 v -7.296 c 0,-0.653 0.044,-1.168 0.132,-1.546 0.09,-0.378 0.24,-0.721 0.45,-1.028 0.238,-0.352 0.56,-0.616 0.968,-0.794 0.407,-0.178 0.897,-0.267 1.469,-0.267 0.578,0 1.069,0.087 1.475,0.263 0.404,0.176 0.728,0.441 0.97,0.798 0.211,0.307 0.361,0.659 0.45,1.056 0.09,0.397 0.133,0.889 0.133,1.478 v 7.336 l 1.604,0 z" /></g><g
           transform="translate(403.3828,476.6533)"
           id="g120"><path
             id="path122"
             style="fill:#606163;fill-opacity:1;fill-rule:nonzero;stroke:none"
             d="M 0,0 H -1.983 L -7.7,10.785 V 0 h -1.497 v 12.057 h 2.484 l 5.215,-9.846 v 9.846 H 0 Z" /></g><g
           transform="translate(420.4785,487.2852)"
           id="g124"><path
             id="path126"
             style="fill:#606163;fill-opacity:1;fill-rule:nonzero;stroke:none"
             d="M 0,0 H -4.309 V -10.632 H -5.911 V 0 h -4.308 V 1.425 H 0 Z" /></g><g
           transform="translate(436.0498,480.0947)"
           id="g128"><path
             id="path130"
             style="fill:#606163;fill-opacity:1;fill-rule:nonzero;stroke:none"
             d="M 0,0 C 0,-0.47 -0.109,-0.935 -0.328,-1.393 -0.547,-1.852 -0.854,-2.24 -1.247,-2.559 -1.68,-2.904 -2.183,-3.174 -2.758,-3.368 -3.332,-3.563 -4.024,-3.66 -4.834,-3.66 c -0.869,0 -1.651,0.081 -2.345,0.243 -0.693,0.162 -1.399,0.402 -2.117,0.721 v 2.008 h 0.113 c 0.611,-0.508 1.315,-0.899 2.114,-1.174 0.798,-0.276 1.549,-0.413 2.251,-0.413 0.993,0 1.766,0.186 2.32,0.558 0.553,0.372 0.83,0.869 0.83,1.49 0,0.535 -0.132,0.928 -0.394,1.182 -0.261,0.254 -0.659,0.451 -1.194,0.592 -0.404,0.107 -0.843,0.196 -1.315,0.266 -0.473,0.071 -0.973,0.16 -1.502,0.268 -1.069,0.227 -1.862,0.613 -2.377,1.162 -0.515,0.548 -0.773,1.262 -0.773,2.142 0,1.009 0.426,1.836 1.28,2.481 0.852,0.645 1.934,0.968 3.247,0.968 0.846,0 1.624,-0.081 2.331,-0.243 0.708,-0.162 1.334,-0.362 1.879,-0.6 V 6.097 H -0.6 C -1.059,6.485 -1.662,6.808 -2.409,7.064 -3.157,7.321 -3.922,7.449 -4.705,7.449 -5.563,7.449 -6.253,7.271 -6.773,6.915 -7.295,6.559 -7.555,6.1 -7.555,5.538 -7.555,5.036 -7.426,4.643 -7.166,4.356 -6.907,4.07 -6.451,3.852 -5.798,3.7 -5.452,3.625 -4.961,3.533 -4.324,3.425 -3.688,3.316 -3.147,3.206 -2.705,3.093 -1.809,2.855 -1.134,2.496 -0.681,2.016 -0.228,1.535 0,0.863 0,0" /></g><g
           transform="translate(442.251,488.1387)"
           id="g132"><path
             id="path134"
             style="fill:#606163;fill-opacity:1;fill-rule:nonzero;stroke:none"
             d="M 0,0 H -1.357 V 0.488 H 1.945 V 0 H 0.581 V -3.972 H 0 Z" /></g><g
           transform="translate(448.4531,486.125)"
           id="g136"><path
             id="path138"
             style="fill:#606163;fill-opacity:1;fill-rule:nonzero;stroke:none"
             d="M 0,0 C -0.032,0.623 -0.072,1.378 -0.072,1.927 H -0.085 C -0.243,1.411 -0.423,0.847 -0.648,0.232 L -1.437,-1.933 H -1.872 L -2.599,0.192 C -2.811,0.827 -2.983,1.397 -3.11,1.927 H -3.122 C -3.137,1.37 -3.169,0.629 -3.209,-0.047 L -3.33,-1.958 h -0.546 l 0.309,4.459 h 0.736 l 0.76,-2.157 c 0.187,-0.549 0.331,-1.04 0.452,-1.502 h 0.012 c 0.119,0.449 0.279,0.939 0.477,1.502 l 0.793,2.157 h 0.734 l 0.28,-4.459 H 0.105 Z" /></g></g></g></g></svg>