<?xml version="1.0" encoding="UTF-8"?><svg id="Layer_1" xmlns="http://www.w3.org/2000/svg" viewBox="0 0 63.57 84.57"><defs><style>.cls-1{fill:#00b060;}</style></defs><path class="cls-1" d="M44.52,19.04c-.05-.06-.11-.11-.17-.16-4.69-3.68-11.72-9.21-11.72-9.21-.5-.4-1.21-.4-1.71,0,0,0-7.03,5.53-11.72,9.21-.06.05-.11.1-.16.15-4.84,3.89-7.62,9.66-7.62,15.86,0,10.17,7.6,18.84,17.69,20.16.39.05.79-.07,1.09-.33.3-.26.47-.64.47-1.04v-16.1c0-.61.5-1.11,1.11-1.11s1.1.49,1.1,1.11v16.1c0,.4.17.78.47,1.04.25.22.58.34.91.34.06,0,.12,0,.18-.01,10.09-1.32,17.69-9.99,17.69-20.16,0-6.2-2.77-11.96-7.62-15.86ZM35.65,52.05v-14.46c0-2.13-1.73-3.87-3.87-3.87s-3.87,1.73-3.87,3.87v14.46c-7.93-1.78-13.73-8.89-13.73-17.15,0-5.43,2.46-10.47,6.75-13.84.06-.05.11-.09.16-.15,3.68-2.89,8.7-6.84,10.68-8.4,1.98,1.56,6.99,5.5,10.68,8.39.05.06.1.1.16.15,4.29,3.37,6.75,8.41,6.75,13.84,0,8.26-5.8,15.37-13.72,17.15Z"/><path class="cls-1" d="M43.38,0h-23.2C9.05,0,0,9.05,0,20.18v23.2c0,11.13,9.05,20.19,20.18,20.19h23.2c11.13,0,20.18-9.06,20.18-20.19v-23.2C63.57,9.05,54.51,0,43.38,0ZM60.8,43.38c0,9.61-7.81,17.42-17.42,17.42h-23.2c-9.61,0-17.42-7.82-17.42-17.42v-23.2C2.76,10.58,10.58,2.76,20.18,2.76h23.2c9.61,0,17.42,7.81,17.42,17.42v23.2Z"/><path class="cls-1" d="M46.71,65.78h-29.85c-2.29,0-4.15,1.86-4.15,4.15s1.86,4.14,4.15,4.14h29.85c2.29,0,4.15-1.86,4.15-4.14s-1.86-4.15-4.15-4.15ZM46.71,71.31h-29.85c-.76,0-1.38-.62-1.38-1.38s.62-1.38,1.38-1.38h29.85c.76,0,1.38.62,1.38,1.38s-.62,1.38-1.38,1.38Z"/><path class="cls-1" d="M42.29,76.28h-21c-2.29,0-4.15,1.86-4.15,4.14s1.86,4.15,4.15,4.15h21c2.29,0,4.15-1.86,4.15-4.15s-1.86-4.14-4.15-4.14ZM42.29,81.81h-21c-.76,0-1.38-.62-1.38-1.38s.62-1.38,1.38-1.38h21c.76,0,1.38.62,1.38,1.38s-.62,1.38-1.38,1.38Z"/></svg>