<?xml version="1.0" encoding="UTF-8" standalone="no"?>
<svg
   xmlns:dc="http://purl.org/dc/elements/1.1/"
   xmlns:cc="http://creativecommons.org/ns#"
   xmlns:rdf="http://www.w3.org/1999/02/22-rdf-syntax-ns#"
   xmlns:svg="http://www.w3.org/2000/svg"
   xmlns="http://www.w3.org/2000/svg"
   viewBox="0 0 1122.52 793.70667"
   height="793.70667"
   width="1122.52"
   xml:space="preserve"
   id="svg2"
   version="1.1"><metadata
     id="metadata8"><rdf:RDF><cc:Work
         rdf:about=""><dc:format>image/svg+xml</dc:format><dc:type
           rdf:resource="http://purl.org/dc/dcmitype/StillImage" /></cc:Work></rdf:RDF></metadata><defs
     id="defs6"><clipPath
       id="clipPath18"
       clipPathUnits="userSpaceOnUse"><path
         id="path16"
         d="M 0,595.28 H 841.89 V 0 H 0 Z" /></clipPath></defs><g
     transform="matrix(1.3333333,0,0,-1.3333333,0,793.70667)"
     id="g10"><g
       id="g12"><g
         clip-path="url(#clipPath18)"
         id="g14"><g
           transform="translate(511.3125,336.2817)"
           id="g20"><path
             id="path22"
             style="fill:#4b558c;fill-opacity:1;fill-rule:nonzero;stroke:none"
             d="m 0,0 v -35.658 c 0,-4.354 -0.92,-7.648 -2.765,-9.885 -1.841,-2.235 -4.294,-3.354 -7.353,-3.354 -3.376,0 -6.064,0.884 -8.064,2.648 -2.316,2.001 -3.469,5.139 -3.469,9.414 V 0 h -10.886 v -35.892 c 0,-4.824 -1.16,-8.317 -3.472,-10.474 -1.844,-1.689 -4.494,-2.531 -7.942,-2.531 -3.297,0 -5.787,1.119 -7.476,3.354 -1.763,2.158 -2.648,4.804 -2.648,7.945 V 0 h -5.637 v 0.012 h -38.61 c -5.412,0 -9.808,-1.13 -13.181,-3.131 -4.392,-2.668 -6.588,-6.846 -6.588,-12.533 0,-4.354 1.431,-7.806 4.294,-10.356 2.432,-2.155 6.491,-4.217 12.181,-6.179 2.587,-0.785 6.294,-1.863 11.12,-3.235 6.078,-2 9.118,-5.446 9.118,-8.506 0,-1.923 -0.842,-3.333 -2.53,-4.236 -0.863,-0.393 -1.97,-0.942 -4.294,-0.942 l -0.881,-0.006 h -29.008 v -9.887 h 25.183 3.588 c 4.982,0 8.963,1.047 11.944,2.656 4.588,2.51 6.884,6.726 6.884,12.651 0,4.433 -1.408,9.016 -4.237,11.918 -3.058,3.099 -8,5.627 -14.826,7.59 -6.198,1.529 -9.926,2.53 -11.181,3.002 -3.963,1.529 -6.06,3.45 -6.295,5.765 0,3.452 2.216,5.308 6.65,5.308 h 35.716 v -28.903 c 0,-4.589 1.432,-8.766 4.298,-12.532 3.803,-4.983 9.276,-7.473 16.416,-7.473 3.842,0 7.374,0.882 10.589,2.648 2.668,1.45 4.765,3.255 6.296,5.413 2.546,-3.022 5.078,-5.1 7.591,-6.238 2.392,-1.214 5.769,-1.823 10.12,-1.823 4.708,0 9.122,1.649 13.241,4.942 4.51,3.61 6.764,8.179 6.764,13.709 L 10.65,0 Z" /></g><g
           transform="translate(393.2212,256.4307)"
           id="g24"><path
             id="path26"
             style="fill:#00b268;fill-opacity:1;fill-rule:nonzero;stroke:none"
             d="m 0,0 v 12.152 c 0,0.17 0.074,0.3 0.224,0.391 0.151,0.09 0.329,0.14 0.537,0.14 0.203,0 0.38,-0.05 0.528,-0.14 0.152,-0.091 0.229,-0.221 0.229,-0.391 L 1.518,0 c 0,-0.167 -0.077,-0.3 -0.229,-0.397 -0.148,-0.098 -0.325,-0.144 -0.528,-0.144 -0.208,0 -0.386,0.046 -0.537,0.144 C 0.074,-0.3 0,-0.167 0,0" /></g><g
           transform="translate(402.7329,256.4307)"
           id="g28"><path
             id="path30"
             style="fill:#00b268;fill-opacity:1;fill-rule:nonzero;stroke:none"
             d="m 0,0 v 12.152 c 0,0.351 0.253,0.531 0.76,0.531 0.254,0 0.468,-0.08 0.641,-0.231 C 1.577,12.3 1.749,12.057 1.917,11.718 L 6.42,2.91 v 9.242 c 0,0.17 0.076,0.3 0.227,0.391 0.148,0.09 0.327,0.14 0.534,0.14 0.203,0 0.38,-0.05 0.533,-0.14 0.15,-0.091 0.224,-0.221 0.224,-0.391 L 7.938,0 c 0,-0.167 -0.074,-0.3 -0.224,-0.397 -0.153,-0.098 -0.33,-0.144 -0.533,-0.144 -0.386,0 -0.707,0.227 -0.96,0.687 L 1.519,9.241 V 0 C 1.519,-0.167 1.445,-0.3 1.294,-0.397 1.141,-0.495 0.965,-0.541 0.76,-0.541 0.554,-0.541 0.378,-0.495 0.225,-0.397 0.074,-0.3 0,-0.167 0,0" /></g><g
           transform="translate(418.54,259.7246)"
           id="g32"><path
             id="path34"
             style="fill:#00b268;fill-opacity:1;fill-rule:nonzero;stroke:none"
             d="m 0,0 v 5.443 c 0,1.36 0.353,2.36 1.056,2.994 0.707,0.631 1.638,0.952 2.795,0.952 1.179,0 2.135,-0.301 2.856,-0.901 C 7.433,7.892 7.792,7.108 7.792,6.146 7.792,5.87 7.731,5.678 7.604,5.567 7.477,5.459 7.287,5.406 7.033,5.406 6.542,5.406 6.286,5.579 6.277,5.928 6.119,7.318 5.322,8.01 3.888,8.01 2.309,8.01 1.518,7.155 1.518,5.443 V 0 c 0,-1.711 0.791,-2.57 2.37,-2.57 0.758,0 1.347,0.214 1.762,0.642 C 6.066,-1.502 6.277,-0.859 6.277,0 V 1.842 H 4.121 c -0.169,0 -0.296,0.064 -0.388,0.189 -0.089,0.127 -0.135,0.278 -0.135,0.445 0,0.167 0.048,0.315 0.145,0.442 0.096,0.127 0.222,0.19 0.378,0.19 H 7.27 c 0.17,0 0.297,-0.05 0.387,-0.162 C 7.747,2.838 7.792,2.705 7.792,2.547 V 0 C 7.792,-1.365 7.44,-2.362 6.725,-2.995 6.016,-3.628 5.069,-3.944 3.888,-3.944 2.705,-3.944 1.763,-3.628 1.056,-2.995 0.353,-2.362 0,-1.365 0,0" /></g><g
           transform="translate(434.002,256.4307)"
           id="g36"><path
             id="path38"
             style="fill:#00b268;fill-opacity:1;fill-rule:nonzero;stroke:none"
             d="m 0,0 v 12.136 c 0,0.165 0.068,0.302 0.207,0.394 0.14,0.1 0.298,0.153 0.477,0.153 h 6.439 c 0.172,0 0.302,-0.071 0.39,-0.202 0.091,-0.134 0.135,-0.289 0.135,-0.472 0,-0.194 -0.05,-0.358 -0.141,-0.499 C 7.41,11.372 7.283,11.304 7.123,11.304 H 1.516 V 6.71 H 4.337 C 4.497,6.71 4.624,6.646 4.721,6.521 4.818,6.394 4.862,6.24 4.862,6.057 4.862,5.901 4.818,5.762 4.729,5.637 4.639,5.509 4.512,5.443 4.337,5.443 H 1.516 v -4.61 h 5.607 c 0.16,0 0.287,-0.072 0.384,-0.209 0.091,-0.14 0.141,-0.305 0.141,-0.496 0,-0.18 -0.044,-0.337 -0.135,-0.473 -0.088,-0.13 -0.218,-0.196 -0.39,-0.196 H 0.684 c -0.179,0 -0.337,0.046 -0.477,0.144 C 0.068,-0.3 0,-0.167 0,0" /></g><g
           transform="translate(448.7217,256.4307)"
           id="g40"><path
             id="path42"
             style="fill:#00b268;fill-opacity:1;fill-rule:nonzero;stroke:none"
             d="m 0,0 v 12.152 c 0,0.351 0.253,0.531 0.758,0.531 0.255,0 0.47,-0.08 0.642,-0.231 C 1.577,12.3 1.751,12.057 1.92,11.718 L 6.422,2.91 v 9.242 c 0,0.17 0.076,0.3 0.223,0.391 0.156,0.09 0.332,0.14 0.533,0.14 0.208,0 0.385,-0.05 0.536,-0.14 0.153,-0.091 0.229,-0.221 0.229,-0.391 L 7.943,0 c 0,-0.167 -0.076,-0.3 -0.229,-0.397 -0.151,-0.098 -0.328,-0.144 -0.536,-0.144 -0.382,0 -0.705,0.227 -0.957,0.687 L 1.52,9.241 V 0 c 0,-0.167 -0.08,-0.3 -0.227,-0.397 -0.15,-0.098 -0.325,-0.144 -0.535,-0.144 -0.202,0 -0.382,0.046 -0.53,0.144 C 0.076,-0.3 0,-0.167 0,0" /></g><g
           transform="translate(464.6562,256.4307)"
           id="g44"><path
             id="path46"
             style="fill:#00b268;fill-opacity:1;fill-rule:nonzero;stroke:none"
             d="m 0,0 v 12.152 c 0,0.17 0.074,0.3 0.225,0.391 0.152,0.09 0.332,0.14 0.537,0.14 0.202,0 0.379,-0.05 0.528,-0.14 0.155,-0.091 0.231,-0.221 0.231,-0.391 L 1.521,0 C 1.521,-0.167 1.445,-0.3 1.29,-0.397 1.141,-0.495 0.964,-0.541 0.762,-0.541 0.557,-0.541 0.377,-0.495 0.225,-0.397 0.074,-0.3 0,-0.167 0,0" /></g><g
           transform="translate(474.1689,256.4307)"
           id="g48"><path
             id="path50"
             style="fill:#00b268;fill-opacity:1;fill-rule:nonzero;stroke:none"
             d="m 0,0 v 12.136 c 0,0.165 0.067,0.302 0.209,0.394 0.138,0.1 0.296,0.153 0.477,0.153 h 6.437 c 0.169,0 0.302,-0.071 0.393,-0.202 0.089,-0.134 0.133,-0.289 0.133,-0.472 0,-0.194 -0.048,-0.358 -0.142,-0.499 -0.1,-0.138 -0.226,-0.206 -0.384,-0.206 H 1.521 V 6.71 h 2.82 C 4.495,6.71 4.623,6.646 4.72,6.521 4.817,6.394 4.862,6.24 4.862,6.057 4.862,5.901 4.821,5.762 4.728,5.637 4.639,5.509 4.511,5.443 4.341,5.443 h -2.82 v -4.61 h 5.602 c 0.158,0 0.284,-0.072 0.384,-0.209 0.094,-0.14 0.142,-0.305 0.142,-0.496 0,-0.18 -0.044,-0.337 -0.133,-0.473 C 7.425,-0.475 7.292,-0.541 7.123,-0.541 H 0.686 c -0.181,0 -0.339,0.046 -0.477,0.144 C 0.067,-0.3 0,-0.167 0,0" /></g><g
           transform="translate(490.4111,263.0137)"
           id="g52"><path
             id="path54"
             style="fill:#00b268;fill-opacity:1;fill-rule:nonzero;stroke:none"
             d="m 0,0 h 2.333 c 1.66,0 2.492,0.791 2.492,2.367 0,1.57 -0.832,2.354 -2.492,2.354 H 0 Z M -1.521,-6.583 V 5.569 c 0,0.146 0.055,0.267 0.154,0.366 0.101,0.094 0.233,0.145 0.389,0.165 H 2.333 C 3.536,6.1 4.512,5.814 5.242,5.254 5.978,4.693 6.346,3.769 6.346,2.479 6.346,0.489 5.448,-0.685 3.654,-1.046 L 6.329,-6.13 c 0.044,-0.085 0.069,-0.17 0.069,-0.257 0,-0.189 -0.092,-0.369 -0.286,-0.53 -0.194,-0.161 -0.396,-0.245 -0.615,-0.245 -0.255,0 -0.485,0.198 -0.687,0.6 L 2.077,-1.267 H 0 v -5.316 c 0,-0.167 -0.076,-0.3 -0.227,-0.397 -0.153,-0.098 -0.328,-0.144 -0.533,-0.144 -0.21,0 -0.383,0.046 -0.535,0.144 -0.152,0.097 -0.226,0.23 -0.226,0.397" /></g><g
           transform="translate(504.1328,256.4307)"
           id="g56"><path
             id="path58"
             style="fill:#00b268;fill-opacity:1;fill-rule:nonzero;stroke:none"
             d="m 0,0 v 12.152 c 0,0.17 0.076,0.3 0.23,0.391 0.149,0.09 0.328,0.14 0.532,0.14 0.202,0 0.387,-0.05 0.53,-0.14 0.155,-0.091 0.231,-0.221 0.231,-0.391 L 1.523,0 c 0,-0.167 -0.076,-0.3 -0.231,-0.397 -0.143,-0.098 -0.328,-0.144 -0.53,-0.144 -0.204,0 -0.383,0.046 -0.532,0.144 C 0.076,-0.3 0,-0.167 0,0 m -0.698,15.175 c 0,0.178 0.076,0.313 0.229,0.396 l 2.118,1.12 c 0.071,0.026 0.127,0.039 0.178,0.039 0.149,0 0.267,-0.065 0.362,-0.189 0.098,-0.13 0.147,-0.271 0.147,-0.426 0,-0.206 -0.084,-0.348 -0.253,-0.434 L 0.041,14.634 C -0.06,14.585 -0.126,14.56 -0.157,14.56 c -0.146,0 -0.276,0.062 -0.384,0.189 -0.106,0.129 -0.157,0.267 -0.157,0.426" /></g><g
           transform="translate(515.2988,260.1729)"
           id="g60"><path
             id="path62"
             style="fill:#00b268;fill-opacity:1;fill-rule:nonzero;stroke:none"
             d="M 0,0 H 4.035 L 2.021,6.815 Z m -2.625,-3.652 c 0,0.025 0.01,0.072 0.033,0.144 L 1.112,8.521 C 1.215,8.87 1.523,9.044 2.031,9.044 2.54,9.044 2.847,8.869 2.955,8.513 L 6.67,-3.554 c 0,-0.021 0.002,-0.048 0.009,-0.068 10e-4,-0.024 0.007,-0.038 0.007,-0.051 0,-0.159 -0.098,-0.301 -0.296,-0.425 -0.2,-0.124 -0.414,-0.185 -0.644,-0.185 -0.288,0 -0.472,0.113 -0.541,0.339 L 4.409,-1.265 H -0.377 L -1.17,-3.933 c -0.069,-0.237 -0.254,-0.35 -0.552,-0.35 -0.212,0 -0.416,0.06 -0.613,0.179 -0.194,0.123 -0.29,0.271 -0.29,0.452" /></g><g
           transform="translate(355.5581,287.8809)"
           id="g64"><path
             id="path66"
             style="fill:#00b268;fill-opacity:1;fill-rule:nonzero;stroke:none"
             d="m 0,0 v 14.458 c 0,2.134 -1.735,3.869 -3.868,3.869 -2.133,0 -3.871,-1.735 -3.871,-3.869 V 0 c -7.928,1.78 -13.725,8.891 -13.725,17.148 0,5.429 2.463,10.474 6.755,13.838 0.056,0.046 0.109,0.094 0.16,0.149 3.682,2.892 8.698,6.836 10.681,8.396 1.98,-1.56 6.992,-5.503 10.678,-8.395 0.048,-0.055 0.102,-0.104 0.161,-0.15 4.291,-3.366 6.754,-8.409 6.754,-13.838 C 13.725,8.891 7.927,1.78 0,0 m 8.872,33.004 c -0.052,0.057 -0.107,0.108 -0.169,0.155 -4.692,3.685 -11.717,9.215 -11.717,9.215 -0.502,0.396 -1.209,0.396 -1.711,0 0,0 -7.027,-5.53 -11.72,-9.215 -0.061,-0.047 -0.115,-0.097 -0.163,-0.153 -4.845,-3.891 -7.619,-9.656 -7.619,-15.858 0,-10.173 7.604,-18.841 17.69,-20.165 0.395,-0.05 0.793,0.071 1.089,0.333 0.301,0.262 0.472,0.642 0.472,1.038 v 16.104 c 0,0.612 0.498,1.106 1.108,1.106 0.609,0 1.105,-0.494 1.105,-1.106 V -1.646 c 0,-0.396 0.17,-0.776 0.47,-1.038 0.251,-0.222 0.579,-0.343 0.909,-0.343 0.062,0 0.121,0.004 0.182,0.01 10.086,1.324 17.69,9.992 17.69,20.165 0,6.199 -2.771,11.964 -7.616,15.856" /></g><g
           transform="translate(380.7085,296.543)"
           id="g68"><path
             id="path70"
             style="fill:#00b268;fill-opacity:1;fill-rule:nonzero;stroke:none"
             d="m 0,0 c 0,-9.605 -7.813,-17.421 -17.419,-17.421 h -23.202 c -9.606,0 -17.419,7.816 -17.419,17.421 v 23.2 c 0,9.605 7.813,17.42 17.419,17.42 h 23.202 C -7.813,40.62 0,32.805 0,23.2 Z M -17.419,43.384 H -40.621 C -51.75,43.384 -60.803,34.33 -60.803,23.2 V 0 c 0,-11.13 9.053,-20.186 20.182,-20.186 h 23.202 c 11.127,0 20.182,9.056 20.182,20.186 v 23.2 c 0,11.13 -9.055,20.184 -20.182,20.184" /></g><g
           transform="translate(366.6138,268.6201)"
           id="g72"><path
             id="path74"
             style="fill:#00b268;fill-opacity:1;fill-rule:nonzero;stroke:none"
             d="m 0,0 h -29.851 c -0.762,0 -1.382,0.62 -1.382,1.382 0,0.761 0.62,1.383 1.382,1.383 L 0,2.765 C 0.763,2.765 1.383,2.143 1.383,1.382 1.383,0.62 0.763,0 0,0 m 0,5.527 h -29.851 c -2.286,0 -4.146,-1.859 -4.146,-4.145 0,-2.286 1.86,-4.145 4.146,-4.145 H 0 c 2.286,0 4.146,1.859 4.146,4.145 0,2.286 -1.86,4.145 -4.146,4.145" /></g><g
           transform="translate(362.1914,258.1172)"
           id="g76"><path
             id="path78"
             style="fill:#00b268;fill-opacity:1;fill-rule:nonzero;stroke:none"
             d="m 0,0 h -21.003 c -0.764,0 -1.384,0.62 -1.384,1.384 0,0.761 0.62,1.381 1.384,1.381 L 0,2.765 c 0.761,0 1.381,-0.62 1.381,-1.381 C 1.381,0.62 0.761,0 0,0 m 0,5.525 h -21.003 c -2.289,0 -4.147,-1.858 -4.147,-4.141 0,-2.288 1.858,-4.148 4.147,-4.148 H 0 c 2.287,0 4.147,1.86 4.147,4.148 0,2.283 -1.86,4.141 -4.147,4.141" /></g></g></g></g></svg>